<svg xmlns="http://www.w3.org/2000/svg" viewBox="0 0 400 300" width="400" height="300" role="img" aria-label="手工糖果插圖">
  <defs>
    <linearGradient id="bg5" x1="0" y1="0" x2="1" y2="1">
      <stop offset="0" stop-color="#ffd9a0"/>
      <stop offset="1" stop-color="#e8894b"/>
    </linearGradient>
  </defs>
  <rect width="400" height="300" fill="url(#bg5)"/>
  <g opacity=".35" fill="#ffffff">
    <circle cx="52" cy="46" r="3"/><circle cx="330" cy="38" r="2.4"/>
    <circle cx="366" cy="228" r="3.2"/><circle cx="44" cy="250" r="2.2"/>
    <circle cx="200" cy="26" r="2"/>
  </g>
  <rect x="88" y="92" width="78" height="78" rx="14" fill="#e8532c"/>
  <rect x="94" y="98" width="66" height="27" rx="8" fill="#ffffff" opacity=".28"/>  <rect x="178" y="76" width="78" height="78" rx="14" fill="#f2a52a"/>
  <rect x="184" y="82" width="66" height="27" rx="8" fill="#ffffff" opacity=".28"/>  <rect x="258" y="108" width="70" height="70" rx="14" fill="#8bbf3f"/>
  <rect x="264" y="114" width="58" height="24" rx="8" fill="#ffffff" opacity=".28"/>  <rect x="126" y="178" width="74" height="74" rx="14" fill="#c9407e"/>
  <rect x="132" y="184" width="62" height="26" rx="8" fill="#ffffff" opacity=".28"/>  <rect x="214" y="172" width="76" height="76" rx="14" fill="#f0c320"/>
  <rect x="220" y="178" width="64" height="27" rx="8" fill="#ffffff" opacity=".28"/>
</svg>
